<svg xmlns="http://www.w3.org/2000/svg" viewBox="0 0 2033.73 306.46"><defs><style>.cls-1{fill:#050401;}.cls-2{fill:#fffaff;}</style></defs><title>DSBlakWht</title><g id="Layer_2" data-name="Layer 2"><g id="Layer_1-2" data-name="Layer 1"><path class="cls-1" d="M259.81,153.34q0,33.67-10.67,61.29A135.89,135.89,0,0,1,219,261.91a134,134,0,0,1-46.75,30.43q-27.3,10.79-60.35,10.78H0V3.35H111.92q33,0,60.35,10.77A133.3,133.3,0,0,1,219,44.66,137,137,0,0,1,249.14,92Q259.82,119.66,259.81,153.34Zm-41.63,0q0-27.61-7.53-49.37T189.32,67.15a91.14,91.14,0,0,0-33.47-23q-19.66-7.95-43.93-8H40.58V270.27h71.34q24.26,0,43.93-7.95a91.61,91.61,0,0,0,33.47-22.9q13.8-15,21.33-36.72T218.18,153.34Z"/><path class="cls-1" d="M503.1,270.06l-.21,33.06H318.18V3.35H502.89V36.4H358.76V136H475.49v31.8H358.76V270.06Z"/><path class="cls-1" d="M803.5,3.35,681.33,303.12h-36.4L522.76,3.35h32.43A13.51,13.51,0,0,1,564,6.07a16.65,16.65,0,0,1,5,6.9l84.52,211.49q2.72,7.11,5.33,15.48t4.71,17.57q2.09-9.19,4.39-17.57t5-15.48L757.26,13a15.34,15.34,0,0,1,4.92-6.59,13.48,13.48,0,0,1,8.89-3Z"/><path class="cls-2" d="M989.88,50.21a15.18,15.18,0,0,1-4.08,4.7,8.89,8.89,0,0,1-5.33,1.57c-2.37,0-5.16-1.18-8.37-3.56s-7.22-5-12-7.84a96.68,96.68,0,0,0-17.36-7.84q-10.15-3.56-24.58-3.56a71.72,71.72,0,0,0-24,3.66,51.1,51.1,0,0,0-17.36,9.94A40.71,40.71,0,0,0,866.25,62a46.88,46.88,0,0,0-3.56,18.31q0,12.56,6.18,20.81a53.05,53.05,0,0,0,16.31,14.12,125.11,125.11,0,0,0,23,10.15q12.87,4.29,26.36,8.89t26.36,10.35a93.12,93.12,0,0,1,23,14.54,66.43,66.43,0,0,1,16.32,21.55q6.16,12.76,6.17,31.38a101.06,101.06,0,0,1-6.7,36.92,85.12,85.12,0,0,1-19.56,30,91.35,91.35,0,0,1-31.58,20.08q-18.74,7.32-42.57,7.32-29.29,0-53.14-10.56a124.57,124.57,0,0,1-40.79-28.56l11.72-19.24a15.31,15.31,0,0,1,4.07-3.87,9.54,9.54,0,0,1,5.34-1.57,11.82,11.82,0,0,1,6.17,2.2q3.45,2.19,7.84,5.54t10,7.32A82.59,82.59,0,0,0,870.12,265a86.73,86.73,0,0,0,16.42,5.55,89.72,89.72,0,0,0,20.71,2.19,77.24,77.24,0,0,0,25.73-4,54.67,54.67,0,0,0,19.14-11.19,48.53,48.53,0,0,0,12-17.26A57.65,57.65,0,0,0,968.34,218q0-13.6-6.18-22.28A51,51,0,0,0,946,181.16a112.18,112.18,0,0,0-23-9.94q-13-4.08-26.36-8.37a278.32,278.32,0,0,1-26.35-9.93,85.29,85.29,0,0,1-23-14.65A67.23,67.23,0,0,1,831,115.79q-6.16-13.5-6.17-33.37A79.46,79.46,0,0,1,831,51.67a78.49,78.49,0,0,1,18-26.36A88,88,0,0,1,878.07,6.9Q895.34,0,917.71,0q25.11,0,45.71,8a108,108,0,0,1,36.29,23Z"/><path class="cls-2" d="M1152,3.35q28.45,0,49.48,6.59t34.83,18.72A75.45,75.45,0,0,1,1256.91,58q6.79,17.14,6.8,38.28a97.6,97.6,0,0,1-7.32,38.28A82.38,82.38,0,0,1,1235,164.42Q1220.82,177,1200,184t-48,7h-48.11V303.12h-40.38V3.35Zm0,155.42q17.37,0,30.65-4.6A63.87,63.87,0,0,0,1205,141.31a52.87,52.87,0,0,0,13.7-19.77,67.53,67.53,0,0,0,4.61-25.31q0-28.67-17.68-44.77T1152,35.35h-48.11V158.77Z"/><path class="cls-2" d="M1779.78,241.2a7.74,7.74,0,0,1,5.86,2.72l16.1,17.36a128.3,128.3,0,0,1-44.66,33.26q-26.25,11.93-63.49,11.92-32.21,0-58.57-11.19a128.9,128.9,0,0,1-45-31.38q-18.61-20.17-28.86-48.43t-10.25-62.12q0-33.9,10.66-62.13t30-48.54A134.34,134.34,0,0,1,1638,11.19Q1664.94,0,1697.57,0q32,0,56.48,10.25a142.12,142.12,0,0,1,43.09,27.82l-13.39,18.62a10.81,10.81,0,0,1-3.24,3.45,9.27,9.27,0,0,1-5.33,1.36q-3.77,0-9.21-4.08a141.41,141.41,0,0,0-14.22-9.1,110.92,110.92,0,0,0-22-9.1q-13.17-4.08-32.42-4.08-23.22,0-42.47,8.06a92.65,92.65,0,0,0-33.15,23.32q-13.92,15.27-21.66,37.24t-7.74,49.58q0,28,8.06,50t22,37.13a92.74,92.74,0,0,0,32.85,23.12,104.52,104.52,0,0,0,40.89,7.95,169.47,169.47,0,0,0,24.16-1.57,98.35,98.35,0,0,0,19.88-4.92,83.55,83.55,0,0,0,16.94-8.47,120.13,120.13,0,0,0,15.59-12.24A10.81,10.81,0,0,1,1779.78,241.2Z"/><path class="cls-2" d="M2033.73,270.06l-.2,33.06H1848.81V3.35h184.72V36.4H1889.39V136h116.73v31.8H1889.39V270.06Z"/><path class="cls-2" d="M1399.84,3.35,1293.35,246.73h214.16Zm-58.49,213.88,58.86-136.32,59.3,136.32Z"/><rect class="cls-2" x="1293.35" y="276.26" width="214.15" height="27"/></g></g></svg>